<svg width="17" height="18" viewBox="0 0 17 18" fill="none" xmlns="http://www.w3.org/2000/svg">
<path d="M14.2188 4.59375L13.4601 15.218C13.4287 15.6595 13.2311 16.0727 12.9072 16.3744C12.5833 16.676 12.1571 16.8438 11.7145 16.8438H4.473C4.03037 16.8438 3.60418 16.676 3.28027 16.3744C2.95637 16.0727 2.7588 15.6595 2.72738 15.218L1.96875 4.59375M6.34375 8.09375V13.3438M9.84375 8.09375V13.3438M10.7188 4.59375V1.96875C10.7188 1.73669 10.6266 1.51413 10.4625 1.35003C10.2984 1.18594 10.0758 1.09375 9.84375 1.09375H6.34375C6.11169 1.09375 5.88913 1.18594 5.72503 1.35003C5.56094 1.51413 5.46875 1.73669 5.46875 1.96875V4.59375M1.09375 4.59375H15.0938" stroke="#909094" stroke-width="2.1875" stroke-linecap="round" stroke-linejoin="round"/>
</svg>
